<?xml version="1.0" encoding="utf-8"?>
<!-- Generator: Adobe Illustrator 16.0.0, SVG Export Plug-In . SVG Version: 6.00 Build 0)  -->
<!DOCTYPE svg PUBLIC "-//W3C//DTD SVG 1.1//EN" "http://www.w3.org/Graphics/SVG/1.1/DTD/svg11.dtd">
<svg class="logo-davidpots" version="1.1" xmlns="http://www.w3.org/2000/svg" xmlns:xlink="http://www.w3.org/1999/xlink" x="0px" y="0px" width="173px"
	 height="35px" viewBox="0 0 173 35" enable-background="new 0 0 173 35" xml:space="preserve">
<g id="BG" display="none">
	<rect x="-2971.01" y="-14975.432" display="inline" fill="#58595B" width="16618.707" height="16738.607"/>
</g>
<g id="Layer_2">
	<g>
		<g>
			<path d="M41.015,0c0.337,0,0.663,0.271,0.726,0.602l5.283,27.997c0.062,0.33,0.165,0.33,0.227,0l5.284-27.997
				C52.597,0.271,52.923,0,53.26,0h3.184C56.78,0,57,0.27,56.933,0.6l-6.917,33.802C49.948,34.731,49.617,35,49.281,35h-4.286
				c-0.336,0-0.667-0.269-0.735-0.599L37.342,0.6C37.273,0.27,37.495,0,37.832,0H41.015z"/>
		</g>
		<g>
			<path d="M61.409,35c-0.337,0-0.612-0.274-0.612-0.612V0.612C60.797,0.275,61.072,0,61.409,0h3.184
				c0.336,0,0.612,0.275,0.612,0.612v33.775c0,0.338-0.276,0.612-0.612,0.612H61.409z"/>
		</g>
		<g>
			<path d="M31.572,0.601C31.505,0.271,31.175,0,30.839,0h-4.616c-0.337,0-0.667,0.271-0.734,0.601l-6.811,33.698
				c-0.066,0.33,0.154,0.601,0.491,0.601h3.184c0.338,0,0.663-0.272,0.723-0.604l1.434-7.868c0.061-0.331,0.385-0.604,0.722-0.604
				h6.545c0.337,0,0.664,0.271,0.726,0.603l1.481,7.87c0.062,0.331,0.388,0.603,0.725,0.603h3.184c0.337,0,0.558-0.271,0.491-0.601
				L31.572,0.601z M28.417,5.638c0.062-0.332,0.163-0.332,0.223,0l2.978,16.108c0.061,0.331-0.165,0.603-0.501,0.603h-5.227
				c-0.336,0-0.562-0.271-0.499-0.602L28.417,5.638z"/>
		</g>
		<g>
			<path d="M13.941,2.673C12.434,0.892,10.998,0,6.882,0H0.613C0.275,0,0,0.275,0,0.612v16.837v16.838
				c0,0.336,0.275,0.612,0.613,0.612h3.796h2.473c1.928,0,3.264-0.199,4.299-0.59c1.174-0.443,1.96-1.137,2.76-2.084
				c1.506-1.781,2.259-5.006,2.259-9.67v-5.106v-5.106C16.2,7.679,15.447,4.456,13.941,2.673z M11.847,22.88
				c0,0.129-0.003,0.258-0.005,0.387c-0.06,3.993-1.052,8.105-4.347,8.105H5.021c-0.336,0-0.612-0.275-0.612-0.611v-7.494v-5.817
				V4.14c0-0.338,0.275-0.612,0.612-0.612h2.474c3.4,0,4.353,4.38,4.353,8.491v5.431V22.88z"/>
		</g>
		<g>
			<path d="M84.864,2.673C83.356,0.892,81.92,0,77.805,0h-6.27c-0.336,0-0.612,0.275-0.612,0.612v16.837v16.838
				c0,0.336,0.276,0.612,0.612,0.612h3.796h2.474c1.927,0,3.263-0.199,4.298-0.59c1.174-0.443,1.96-1.137,2.761-2.084
				c1.506-1.781,2.259-5.006,2.259-9.67v-5.106v-5.106C87.123,7.679,86.37,4.456,84.864,2.673z M82.77,22.88
				c0,0.129-0.003,0.258-0.005,0.387c-0.059,3.993-1.052,8.105-4.347,8.105h-2.474c-0.336,0-0.612-0.275-0.612-0.611v-7.494v-5.817
				V4.14c0-0.338,0.276-0.612,0.612-0.612h2.474c3.401,0,4.353,4.38,4.353,8.491v5.431V22.88z"/>
		</g>
	</g>
	<g>
		<g>
			<path d="M137.312,12.343v10.214c0,4.665-0.744,7.888-2.232,9.671c-1.488,1.78-3.619,2.672-6.392,2.672
				c-2.774,0-4.904-0.892-6.393-2.672c-1.487-1.783-2.231-5.006-2.231-9.671V12.343c0-4.664,0.744-7.889,2.231-9.67
				C123.785,0.892,125.915,0,128.689,0c2.773,0,4.904,0.892,6.392,2.673S137.312,7.679,137.312,12.343z M132.959,23.382V11.517
				c0-5.289-1.415-7.935-4.243-7.935c-1.36,0-2.417,0.569-3.168,1.708c-0.753,1.139-1.13,3.215-1.13,6.227v11.865
				c0,3.014,0.377,5.09,1.13,6.227c0.752,1.141,1.809,1.709,3.168,1.709C131.544,31.317,132.959,28.673,132.959,23.382z"/>
		</g>
		<g>
			<path d="M139.461,4.751c-0.336,0-0.612-0.275-0.612-0.611V0.612c0-0.337,0.275-0.612,0.612-0.612h13.819
				c0.336,0,0.613,0.275,0.613,0.612V4.14c0,0.336-0.276,0.611-0.613,0.611h-4.121c-0.336,0-0.612,0.275-0.612,0.612v28.924
				c0,0.336-0.275,0.612-0.612,0.612h-3.128c-0.336,0-0.612-0.276-0.612-0.612V5.363c0-0.337-0.276-0.612-0.613-0.612H139.461z"/>
		</g>
		<g>
			<path d="M168.702,26.681c0-2.55-0.991-4.509-2.975-5.881c0,0-1.174-0.637-3.896-2.493c-2.722-1.855-5.471-5.38-5.471-9.365
				c0-3.315,0.725-5.634,2.176-6.958C159.986,0.663,161.97,0,164.486,0s4.473,0.615,5.869,1.841
				c1.396,1.228,2.535,4.336,2.535,6.144c0,0.753,0.11,1.21-0.648,1.21c-0.554,0-2.94,0.014-2.94,0.014
				c-0.33,0.064-0.669-0.145-0.753-0.463c0,0-0.134-4.856-3.93-4.856c-2.59,0-3.907,1.439-3.907,4.913
				c0,1.529,0.193,1.954,0.579,2.91c0.386,0.955,1.129,1.816,2.232,2.582c0,0,0.729,0.637,3.233,2.366
				c2.505,1.729,2.975,2.131,3.6,2.704c0.624,0.575,1.221,1.491,1.791,2.75c0.569,1.259,0.854,2.75,0.854,4.472
				c0,3.06-0.763,5.21-2.287,6.454c-1.525,1.243-3.591,1.865-6.199,1.865c-2.609,0-4.647-0.732-6.116-2.2
				c-1.47-1.466-2.7-4.755-2.7-6.929c0-0.956-0.114-1.436,0.869-1.436c0.982,0,2.659-0.007,2.659-0.007
				c0.333-0.05,0.642,0.176,0.686,0.501c0,0,0.516,3.77,1.269,4.917c0.752,1.147,2.08,1.456,3.44,1.456
				C167.522,31.208,168.702,30.061,168.702,26.681z"/>
		</g>
		<g>
			<path d="M114.12,2.673C112.614,0.892,111.177,0,107.062,0h-6.27c-0.336,0-0.612,0.275-0.612,0.612v11.939v11.632v0.307v9.797
				c0,0.336,0.275,0.612,0.612,0.612h3.184c0.337,0,0.612-0.276,0.612-0.612v-9.185h2.474c1.928,0,3.264-0.199,4.298-0.589
				c1.174-0.444,1.96-1.137,2.76-2.083c1.506-1.783,2.26-5.006,2.26-9.67v-0.209v-0.209C116.38,7.679,115.626,4.456,114.12,2.673z
				 M112.026,12.552v0.532c0,0.129-0.003,0.258-0.005,0.386c-0.059,3.994-1.052,8.106-4.347,8.106H105.2
				c-0.337,0-0.612-0.276-0.612-0.612V13.47v-0.918V4.14c0-0.338,0.275-0.612,0.612-0.612h2.474c3.4,0,4.353,4.38,4.353,8.491
				V12.552z"/>
		</g>
	</g>
</g>
</svg>
