<?xml version="1.0" encoding="utf-8"?>
<!-- Generator: Adobe Illustrator 16.0.0, SVG Export Plug-In . SVG Version: 6.00 Build 0)  -->
<!DOCTYPE svg PUBLIC "-//W3C//DTD SVG 1.1//EN" "http://www.w3.org/Graphics/SVG/1.1/DTD/svg11.dtd">
<svg class="logo-pyramid" version="1.1" id="Layer_1" xmlns="http://www.w3.org/2000/svg" xmlns:xlink="http://www.w3.org/1999/xlink" x="0px" y="0px"
	 width="100px" height="100px" viewBox="0 0 100 100" enable-background="new 0 0 100 100" xml:space="preserve">
<g>
	<g>
		<g>
			<path fill="#262626" d="M78.114,60.704L73.778,54.2l-4.336-6.499v-0.004l-4.336-6.505l-4.336-6.504l-4.338-6.503l-5.417-8.13
				c-0.453-0.682-1.58-0.682-2.03,0l-5.419,8.128l-0.002,0.002l-4.336,6.503l-4.338,6.504v0.001l-4.333,6.502
				c-0.002,0-0.002,0.002-0.002,0.002L26.22,54.2l-4.336,6.504c-0.002,0-0.002,0.003-0.002,0.003l-4.334,6.501
				c-0.249,0.375-0.272,0.856-0.06,1.252c0.212,0.398,0.625,0.645,1.074,0.645h62.875c0.45,0,0.864-0.246,1.075-0.645
				c0.211-0.396,0.188-0.877-0.062-1.252L78.114,60.704z M50,22.931l3.142,4.709h-6.285L50,22.931z M45.231,30.08h9.534l2.712,4.064
				H42.521L45.231,30.08z M40.896,36.583h18.208l2.71,4.067H38.185L40.896,36.583z M36.56,43.087h26.88l2.71,4.066H33.849
				L36.56,43.087z M32.224,49.594h35.55l2.714,4.063H29.513L32.224,49.594z M27.888,56.098h44.224l2.711,4.062H25.176L27.888,56.098
				z M20.842,66.667l2.71-4.065h52.896l2.712,4.065H20.842z"/>
		</g>
	</g>
	<g>
		<path fill="#262626" d="M50,0C22.43,0,0,22.43,0,50c0,27.57,22.43,50,50,50s50-22.43,50-50C100,22.43,77.569,0,50,0z M50,97.561
			C23.774,97.561,2.438,76.225,2.438,50C2.438,23.773,23.774,2.438,50,2.438c26.225,0,47.56,21.336,47.56,47.562
			C97.56,76.225,76.225,97.561,50,97.561z"/>
	</g>
</g>
</svg>
