<?xml version="1.0" encoding="utf-8"?>
<!-- Generator: Adobe Illustrator 16.0.0, SVG Export Plug-In . SVG Version: 6.00 Build 0)  -->
<!DOCTYPE svg PUBLIC "-//W3C//DTD SVG 1.1//EN" "http://www.w3.org/Graphics/SVG/1.1/DTD/svg11.dtd">
<svg version="1.1" id="Layer_1" xmlns="http://www.w3.org/2000/svg" xmlns:xlink="http://www.w3.org/1999/xlink" x="0px" y="0px"
	 width="256px" height="256px" viewBox="0 0 256 256" enable-background="new 0 0 256 256" xml:space="preserve">
<path fill="#FFFFFF" d="M128,0C57.308,0,0,57.307,0,128c0,70.692,57.308,128,128,128s128-57.308,128-128C256,57.307,198.692,0,128,0
	z M128,70.428l7.523,10.941h-15.047L128,70.428z M115.824,88.135h24.352l4.651,6.768h-33.655L115.824,88.135z M106.523,101.669
	h42.953l4.651,6.763h-52.257L106.523,101.669z M97.22,115.199h61.561l4.652,6.768H92.567L97.22,115.199z M87.915,128.729h80.169
	l4.652,6.767H83.264L87.915,128.729z M78.611,142.264h98.777l4.651,6.767H73.959L78.611,142.264z M69.311,155.794h117.382
	l4.648,6.767H64.659L69.311,155.794z M55.352,176.092l4.655-6.768h135.986l4.655,6.768H55.352z"/>
</svg>
