<?xml version="1.0" encoding="UTF-8"?>
<svg width="48px" height="48px" viewBox="0 0 48 48" version="1.1" xmlns="http://www.w3.org/2000/svg" xmlns:xlink="http://www.w3.org/1999/xlink">
    <!-- Generator: Sketch 49 (51002) - http://www.bohemiancoding.com/sketch -->
    <title>icon-plus</title>
    <desc>Created with Sketch.</desc>
    <defs></defs>
    <g id="icon-plus" stroke="none" stroke-width="1" fill="none" fill-rule="evenodd">
        <path d="M36,21.0253759 L27,21.0253759 L27,12.0253759 C27,10.3678759 25.6575,9.02537594 24,9.02537594 C22.3425,9.02537594 21,10.3678759 21,12.0253759 L21,21.0253759 L12,21.0253759 C10.3425,21.0253759 9,22.3678759 9,24.0253759 C9,25.6828759 10.3425,27.0253759 12,27.0253759 L21,27.0253759 L21,36.0253759 C21,37.6828759 22.3425,39.0253759 24,39.0253759 C25.6575,39.0253759 27,37.6828759 27,36.0253759 L27,27.0253759 L36,27.0253759 C37.6575,27.0253759 39,25.6828759 39,24.0253759 C39,22.3678759 37.6575,21.0253759 36,21.0253759 Z M24,0.0253759398 C10.745625,0.0253759398 0,10.7711884 0,24.0253759 C0,37.2795634 10.745625,48.0253759 24,48.0253759 C37.254375,48.0253759 48,37.2795634 48,24.0253759 C48,10.7711884 37.254375,0.0253759398 24,0.0253759398 Z M24,3.02537594 C29.61,3.02537594 34.8825,5.20975094 38.85,9.17537594 C42.815625,13.1428759 45,18.4153759 45,24.0253759 C45,29.6353759 42.815625,34.9078759 38.85,38.8751884 C34.8825,42.8410009 29.61,45.0253759 24,45.0253759 C18.39,45.0253759 13.1175,42.8410009 9.15,38.8751884 C5.184375,34.9078759 3,29.6353759 3,24.0253759 C3,18.4153759 5.184375,13.1428759 9.15,9.17537594 C13.1175,5.20975094 18.39,3.02537594 24,3.02537594 Z" id="Fill-25" fill="#454545"></path>
    </g>
</svg>