<?xml version="1.0" encoding="UTF-8"?>
<svg width="48px" height="48px" viewBox="0 0 48 48" version="1.1" xmlns="http://www.w3.org/2000/svg" xmlns:xlink="http://www.w3.org/1999/xlink">
    <!-- Generator: Sketch 49 (51002) - http://www.bohemiancoding.com/sketch -->
    <title>icon-twitter</title>
    <desc>Created with Sketch.</desc>
    <defs></defs>
    <g id="icon-twitter" stroke="none" stroke-width="1" fill="none" fill-rule="evenodd">
        <g id="Group" fill-rule="nonzero">
            <circle id="Oval-1-Copy-9" fill="#21A9E3" cx="24" cy="24" r="24"></circle>
            <path d="M35.6367183,14.9493983 C34.9528133,15.3991885 33.3825777,16.0527941 32.6081827,16.0527941 L32.6081827,16.0541367 C31.7239445,15.1056836 30.4790541,14.5135717 29.0984291,14.5135717 C26.4169458,14.5135717 24.2425723,16.7461424 24.2425723,19.4983214 C24.2425723,19.8807101 24.285725,20.2537004 24.3654921,20.6113844 L24.3647076,20.6113844 C20.7273265,20.5133703 16.7491697,18.6414374 14.3543251,15.4375885 C12.8819023,18.0544276 14.1560841,20.9647717 15.8270094,22.0252025 C15.2550399,22.0695101 14.2021137,21.9575326 13.7065115,21.4610179 C13.6732969,23.1978794 14.4866601,25.4991941 17.4524281,26.3340585 C16.8812431,26.6495829 15.8701621,26.5590878 15.4305276,26.4919549 C15.5848312,27.9581367 17.5845016,29.8749144 19.771167,29.8749144 C18.9918029,30.8005424 16.0595109,32.4794011 12.7689207,31.945292 C15.003708,33.3413871 17.608301,34.1499353 20.3651053,34.1499353 C28.1992835,34.1499353 34.2832924,27.6307969 33.9558549,19.588548 C33.9545473,19.5796864 33.9545473,19.5708249 33.9537627,19.5611578 C33.9545473,19.5404808 33.9558549,19.5198039 33.9558549,19.4983214 C33.9558549,19.473348 33.9537627,19.4497172 33.9529781,19.4255494 C34.6661747,18.9247381 35.6231187,18.0388528 36.3067622,16.8728892 C35.9102803,17.097113 34.7208348,17.5460976 33.6140331,17.6575381 C34.3243529,17.263871 35.376756,15.9746515 35.6367183,14.9493983" id="Fill-1-Copy-5" fill="#F5F8FA"></path>
        </g>
    </g>
</svg>