<?xml version="1.0" encoding="UTF-8"?>
<svg width="48px" height="48px" viewBox="0 0 48 48" version="1.1" xmlns="http://www.w3.org/2000/svg" xmlns:xlink="http://www.w3.org/1999/xlink">
    <!-- Generator: Sketch 49 (51002) - http://www.bohemiancoding.com/sketch -->
    <title>icon-question-mark copy</title>
    <desc>Created with Sketch.</desc>
    <defs></defs>
    <g id="icon-question-mark-copy" stroke="none" stroke-width="1" fill="none" fill-rule="evenodd">
        <path d="M34.5,18.0169173 C34.5,13.0536048 29.79,9.01691729 24,9.01691729 C20.79375,9.01691729 17.810625,10.2375423 15.81375,12.3637923 C14.679375,13.5712923 14.739375,15.4706673 15.946875,16.6031673 C17.154375,17.7375423 19.05375,17.6773548 20.18625,16.4700423 C21.04125,15.5604798 22.46625,15.0169173 24,15.0169173 C26.398125,15.0169173 28.5,16.4192298 28.5,18.0169173 C28.5,19.6144173 26.398125,21.0169173 24,21.0169173 C22.344375,21.0169173 21,22.3594173 21,24.0169173 L21,27.0169173 C21,28.6744173 22.3425,30.0169173 24,30.0169173 C25.6575,30.0169173 27,28.6744173 27,27.0169173 L27,26.6400423 C31.3125,25.5319173 34.5,22.0854798 34.5,18.0169173 Z M24,39.0169173 C25.6575,39.0169173 27,37.6744173 27,36.0169173 C27,34.3594173 25.6575,33.0169173 24,33.0169173 C22.3425,33.0169173 21,34.3594173 21,36.0169173 C21,37.6744173 22.3425,39.0169173 24,39.0169173 Z M24,0.0169172932 C10.745625,0.0169172932 0,10.7627298 0,24.0169173 C0,37.2711048 10.745625,48.0169173 24,48.0169173 C37.254375,48.0169173 48,37.2711048 48,24.0169173 C48,10.7627298 37.254375,0.0169172932 24,0.0169172932 Z M24,3.01691729 C29.61,3.01691729 34.8825,5.20129229 38.85,9.16691729 C42.815625,13.1344173 45,18.4069173 45,24.0169173 C45,29.6269173 42.815625,34.8994173 38.85,38.8667298 C34.8825,42.8325423 29.61,45.0169173 24,45.0169173 C18.39,45.0169173 13.1175,42.8325423 9.15,38.8667298 C5.184375,34.8994173 3,29.6269173 3,24.0169173 C3,18.4069173 5.184375,13.1344173 9.15,9.16691729 C13.1175,5.20129229 18.39,3.01691729 24,3.01691729 Z" id="Fill-238" fill="#F76F46"></path>
    </g>
</svg>