<?xml version="1.0" encoding="UTF-8"?>
<svg width="48px" height="48px" viewBox="0 0 48 48" version="1.1" xmlns="http://www.w3.org/2000/svg" xmlns:xlink="http://www.w3.org/1999/xlink">
    <!-- Generator: Sketch 49 (51002) - http://www.bohemiancoding.com/sketch -->
    <title>icon-phone</title>
    <desc>Created with Sketch.</desc>
    <defs></defs>
    <g id="icon-phone" stroke="none" stroke-width="1" fill="none" fill-rule="evenodd">
        <path d="M24,17.9718045 C19.029375,17.9718045 15,21.9936055 15,26.9548872 C15,31.9159818 19.029375,35.9379699 24,35.9379699 C28.970625,35.9379699 33,31.9159818 33,26.9548872 C33,21.9936055 28.970625,17.9718045 24,17.9718045 Z M24,19.468985 C28.1355,19.468985 31.5,22.826225 31.5,26.9548872 C31.5,31.0833623 28.1355,34.4407895 24,34.4407895 C19.8643125,34.4407895 16.5,31.0833623 16.5,26.9548872 C16.5,22.826225 19.8643125,19.468985 24,19.468985 Z M45,19.468985 L38.604,19.468985 L35.6833125,13.6374671 C35.1751875,12.6229402 34.1364375,11.9830827 33,11.9830827 L15,11.9830827 C13.8635625,11.9830827 12.824625,12.6229402 12.3166875,13.6374671 L9.3958125,19.468985 L3,19.468985 L3,13.4802632 C3,7.49154135 15,5.9943609 24,5.9943609 C33,5.9943609 45,7.49154135 45,13.4802632 L45,19.468985 Z M42,41.9266917 L6,41.9266917 L6,32.943609 L15,14.9774436 L33,14.9774436 L42,32.943609 L42,41.9266917 Z M38.664375,4.60198308 C33.7981875,3.27884986 28.003875,3 24,3 C19.996125,3 14.2018125,3.27884986 9.335625,4.60198308 C1.6198125,6.70365014 0,10.5888334 0,13.4802632 L0,19.468985 C0,21.1233694 1.34325,22.4633459 3,22.4633459 L7.8958125,22.4633459 L3.3166875,31.6036325 C3.108375,32.0207844 3,32.4794831 3,32.943609 L3,41.9266917 C3,43.5810761 4.34325,44.9210526 6,44.9210526 L42,44.9210526 C43.65675,44.9210526 45,43.5810761 45,41.9266917 L45,32.943609 C45,32.4794831 44.891625,32.0207844 44.6833125,31.6036325 L40.104,22.4633459 L45,22.4633459 C46.65675,22.4633459 48,21.1233694 48,19.468985 L48,13.4802632 C48,10.5888334 46.3801875,6.70365014 38.664375,4.60198308 Z" id="Fill-11" fill="#454545"></path>
    </g>
</svg>