<?xml version="1.0" encoding="UTF-8"?>
<svg width="48px" height="48px" viewBox="0 0 48 48" version="1.1" xmlns="http://www.w3.org/2000/svg" xmlns:xlink="http://www.w3.org/1999/xlink">
    <!-- Generator: Sketch 49 (51002) - http://www.bohemiancoding.com/sketch -->
    <title>icon-map</title>
    <desc>Created with Sketch.</desc>
    <defs></defs>
    <g id="icon-map" stroke="none" stroke-width="1" fill="none" fill-rule="evenodd">
        <path d="M42.6,18.4151324 C42.451875,18.6118245 42.226875,18.7147556 42,18.7147556 C41.8425,18.7147556 41.685,18.6660973 41.55,18.5650376 L39.13125,16.7551336 L36.585,19.9312148 C36.436875,20.1164908 36.219375,20.2119361 36,20.2119361 C35.835,20.2119361 35.67,20.1576633 35.53125,20.0472462 C35.20875,19.7889826 35.15625,19.3190551 35.415,18.995477 L37.93125,15.855141 L35.55,14.0734962 C35.218125,13.8264615 35.150625,13.3567211 35.4,13.0254699 C35.649375,12.6942187 36.118125,12.6287171 36.45,12.8755647 L38.86875,14.6854688 L41.415,11.5095747 C41.67375,11.1876809 42.144375,11.1352796 42.46875,11.3935432 C42.79125,11.6516197 42.84375,12.1215472 42.585,12.4453125 L40.06875,15.5854613 L42.45,17.3671061 C42.781875,17.6161995 42.849375,18.0838812 42.6,18.4151324 Z M45,41.9210526 L30.75,44.7656955 L30.75,38.1331861 C32.79375,37.8990645 34.77375,36.7220935 36.39,34.7533012 C39.34125,31.1600681 40.685625,25.5568703 39.735,20.8145512 C39.654375,20.408441 39.25875,20.144563 38.85375,20.2269079 C38.446875,20.3073813 38.1825,20.7022627 38.265,21.1063143 C39.13125,25.4352244 37.9125,30.5387383 35.229375,33.804276 C34.269375,34.9741353 32.746875,36.3403125 30.75,36.6247768 L30.75,8.83336466 L45,5.9887218 L45,41.9210526 Z M18.75,39.3009868 L18.75,23.8538275 C21.620625,25.9667234 22.84875,28.601761 24.039375,31.1581967 C25.273125,33.800533 26.44125,36.3047545 29.25,37.8784783 L29.25,44.5411184 L18.75,39.3009868 Z M3,41.9210526 L3,5.9887218 L17.25,3.14407895 L17.25,21.7353172 C14.40375,21.9187218 12.015,23.1520242 10.310625,25.3321061 C8.09625,28.1617771 7.31625,32.2923109 8.2725,36.113864 C8.37375,36.5143597 8.780625,36.759523 9.181875,36.6584633 C9.583125,36.5572165 9.82875,36.1511063 9.7275,35.7507977 C8.893125,32.4176997 9.585,28.6897204 11.491875,26.2528721 C12.90375,24.4470853 14.88375,23.4138436 17.25,23.2362406 L17.25,39.0764098 L3,41.9210526 Z M29.25,8.60878759 L29.25,36.1045066 C27.369375,34.7495583 26.445,32.7674785 25.400625,30.5254508 C24.075,27.6828665 22.576875,24.469543 18.75,22.0403677 L18.75,3.36865602 L29.25,8.60878759 Z M46.90125,3.67370653 C46.36125,3.22997968 45.688125,2.9943609 45,2.9943609 C44.805,2.9943609 44.60625,3.01307566 44.41125,3.05237664 L30.42,5.84443104 L19.3425,0.31627937 C18.9225,0.10648696 18.463125,0 18,0 C17.803125,0 17.60625,0.0187147556 17.41125,0.0580157425 L2.41125,3.05237664 C1.00875,3.33309798 0,4.56078595 0,5.9887218 L0,41.9210526 C0,42.8174894 0.403125,43.6671393 1.09875,44.2360679 C1.63875,44.6796076 2.311875,44.9154135 3,44.9154135 C3.195,44.9154135 3.39375,44.8965116 3.58875,44.8572106 L17.578125,42.0651562 L28.6575,47.5934951 C29.0775,47.8031003 29.536875,47.9097744 30,47.9097744 C30.196875,47.9097744 30.39375,47.8908725 30.58875,47.8515715 L45.58875,44.8572106 C46.99125,44.5764893 48,43.3488013 48,41.9210526 L48,5.9887218 C48,5.09209786 47.596875,4.2426351 46.90125,3.67370653 Z" id="Fill-149" fill="#454545"></path>
    </g>
</svg>