<?xml version="1.0" encoding="UTF-8"?>
<svg width="48px" height="48px" viewBox="0 0 48 48" version="1.1" xmlns="http://www.w3.org/2000/svg" xmlns:xlink="http://www.w3.org/1999/xlink">
    <!-- Generator: Sketch 49 (51002) - http://www.bohemiancoding.com/sketch -->
    <title>icon-award copy</title>
    <desc>Created with Sketch.</desc>
    <defs></defs>
    <g id="icon-award-copy" stroke="none" stroke-width="1" fill="none" fill-rule="evenodd">
        <path d="M24,7.5 C18.2007667,7.5 13.5002565,12.200625 13.5002565,18 C13.5002565,23.799375 18.2007667,28.5 24,28.5 C29.7992333,28.5 34.4997435,23.799375 34.4997435,18 C34.4997435,12.200625 29.7992333,7.5 24,7.5 Z M24,9 C28.9631913,9 32.9997801,13.0366875 32.9997801,18 C32.9997801,22.963125 28.9631913,27 24,27 C19.0369962,27 15.0002199,22.963125 15.0002199,18 C15.0002199,13.0366875 19.0369962,9 24,9 Z M32.9997801,39 L29.9998534,45 L27.6825975,33.4123125 L28.0274016,33.03375 L30.588589,33.8491875 C30.8867068,33.9429375 31.1941993,33.9898125 31.4998168,33.9898125 C32.0210541,33.9898125 32.5385414,33.855 32.9997801,33.58875 C33.7310123,33.166875 34.2503746,32.45625 34.4303702,31.6310625 L34.9345454,29.323125 L38.9996336,40.5 L32.9997801,39 Z M20.8950758,29.5910625 L16.5001832,30.9898125 L15.5158323,26.484375 L11.0103173,25.5 L12.4092206,21.105 L9.00036642,18 L12.4092206,14.8948125 L11.0103173,10.5 L15.5158323,9.515625 L16.5001832,5.01 L20.8950758,6.40875 L24,3 L27.1049242,6.40875 L31.4998168,5.01 L32.4860427,9.515625 L36.9896827,10.5 L35.5909668,14.8948125 L38.9996336,18 L35.5909668,21.105 L36.9896827,25.5 L32.4860427,26.484375 L31.4998168,30.9898125 L27.1067991,29.5910625 L24,33 L20.8950758,29.5910625 Z M18.0001466,45 L15.0002199,39 L9.00036642,40.5 L13.0652671,29.323125 L13.5696298,31.6310625 C13.7496254,32.45625 14.2689877,33.166875 15.0002199,33.58875 C15.4614586,33.855 15.9789459,33.9898125 16.5001832,33.9898125 C16.8058007,33.9898125 17.1134807,33.9429375 17.411411,33.8491875 L19.9725984,33.03375 L20.31759,33.4123125 L18.0001466,45 Z M37.7865382,28.3873125 C38.5440197,28.179375 39.1927539,27.6841875 39.5883692,27 C40.0102339,26.26875 40.1039816,25.3948125 39.8489878,24.5904375 L39.0335702,22.0273125 L41.0208342,20.218125 C41.6435065,19.648125 41.9995603,18.84375 41.9995603,18 C41.9995603,17.15625 41.6435065,16.3498125 41.0208342,15.781875 L39.0335702,13.9725 L39.8489878,11.4110625 C40.1039816,10.6066875 40.0102339,9.7310625 39.5883692,9 C39.1665045,8.26875 38.4558969,7.749375 37.630917,7.569375 L35.0059811,6.995625 L34.4303702,4.36875 C34.2503746,3.5435625 33.7310123,2.8329375 32.9997801,2.4110625 C32.5385414,2.1448125 32.0210541,2.01 31.4998168,2.01 C31.1941993,2.01 30.8867068,2.056875 30.590464,2.150625 L28.0274016,2.96625 L26.2180708,0.97875 C25.6480847,0.3560625 24.8437294,0 24,0 C23.1562706,0 22.3519153,0.3560625 21.7819292,0.97875 L19.9725984,2.96625 L17.411411,2.150625 C17.1134807,2.056875 16.8058007,2.01 16.5001832,2.01 C15.9789459,2.01 15.4614586,2.1448125 15.0002199,2.4110625 C14.2689877,2.8329375 13.7496254,3.5435625 13.5696298,4.36875 L12.9960813,6.995625 L10.369083,7.569375 C9.54410314,7.749375 8.8334955,8.26875 8.41163081,9 C7.98976611,9.7310625 7.8960184,10.6066875 8.15119967,11.4110625 L8.96661725,13.9725 L6.9791658,15.781875 C6.35668101,16.3498125 6.00043971,17.15625 6.00043971,18 C6.00043971,18.84375 6.35668101,19.65 6.9791658,20.218125 L8.96661725,22.0273125 L8.15119967,24.58875 C7.8960184,25.393125 7.98976611,26.26875 8.41163081,27 C8.80724614,27.6841875 9.45616779,28.179375 10.2115868,28.3873125 L6.18043531,39.4741875 C5.80169456,40.516875 6.02856402,41.6848125 6.77292084,42.508125 C7.34853178,43.1475 8.1622619,43.5 9.00036642,43.5 C9.24223552,43.5 9.48597956,43.47 9.72784865,43.41 L13.3935716,42.495 L15.3170871,46.3425 C15.8289496,47.368125 16.8751741,48 17.9982716,48 C18.1313934,48 18.2645151,47.9904375 18.3995118,47.9735625 C19.6688558,47.8029375 20.6908933,46.845 20.9419497,45.58875 L22.9012768,35.788125 C23.2481434,35.925 23.6195718,36 24,36 C24.3806157,36 24.7518566,35.925 25.0987232,35.788125 L27.0582378,45.58875 C27.3092942,46.845 28.3311442,47.8029375 29.6023631,47.9735625 C29.7354849,47.9904375 29.8686066,48 30.0017284,48 C31.1248259,48 32.1710504,47.368125 32.6831004,46.3425 L34.6066159,42.495 L38.2721513,43.41 C38.5140204,43.47 38.7577645,43.5 38.9996336,43.5 C39.8377381,43.5 40.6514682,43.1475 41.2270792,42.508125 C41.971436,41.6848125 42.1983054,40.516875 41.8195647,39.4741875 L37.7865382,28.3873125 Z" id="Fill-121-Copy-2" fill="#F76F46"></path>
    </g>
</svg>