<?xml version="1.0" encoding="UTF-8"?>
<svg width="48px" height="48px" viewBox="0 0 48 48" version="1.1" xmlns="http://www.w3.org/2000/svg" xmlns:xlink="http://www.w3.org/1999/xlink">
    <!-- Generator: Sketch 49 (51002) - http://www.bohemiancoding.com/sketch -->
    <title>icon-small-business</title>
    <desc>Created with Sketch.</desc>
    <defs></defs>
    <g id="icon-small-business" stroke="none" stroke-width="1" fill="none" fill-rule="evenodd">
        <path d="M1.35767349,22.2238462 L3.19677474,22.2238462 L3.19677474,42.0745976 L1.35767349,42.0745976 L1.35767349,22.2238462 Z M3.19677474,22.2238462 L3.19677474,42.0745976 L1.35767349,42.0745976 L1.35767349,22.2238462 L3.19677474,22.2238462 Z M44.8032253,22.2238462 L46.6423265,22.2238462 L46.6423265,42.0745976 L44.8032253,42.0745976 L44.8032253,22.2238462 Z M46.6423265,22.2238462 L46.6423265,42.0745976 L44.8032253,42.0745976 L44.8032253,22.2238462 L46.6423265,22.2238462 Z M27.6060277,42.2484058 L27.6060277,28.0452194 L20.3939723,28.0452194 L20.3939723,42.2484058 L27.6060277,42.2484058 Z M18.5548711,26.2086977 L29.4451289,26.2086977 L29.4451289,44.0849275 L18.5548711,44.0849275 L18.5548711,26.2086977 Z M24.8861551,33.9158833 L26.7252564,33.9158833 L26.7252564,35.6198335 L24.8861551,35.6198335 L24.8861551,33.9158833 Z M26.7252564,33.9158833 L26.7252564,35.6198335 L24.8861551,35.6198335 L24.8861551,33.9158833 L26.7252564,33.9158833 Z M46.1608988,17.7400113 L46.1608988,7.98931312 L1.83910125,7.98931312 L1.83910125,17.7400113 L46.1608988,17.7400113 Z M0,6.15279138 L48,6.15279138 L48,19.576533 L0,19.576533 L0,6.15279138 Z M33.1169851,19.576533 C33.2377973,21.0810947 34.3874768,22.2238551 35.7465911,22.2238551 C37.1042922,22.2238551 38.2553986,21.080705 38.3779495,19.576533 L33.1169851,19.576533 Z M25.3410814,19.576533 C25.4601374,21.0799114 26.6113692,22.2238551 27.9707424,22.2238551 C29.3289566,22.2238551 30.4768263,21.0820049 30.5985108,19.576533 L25.3410814,19.576533 Z M17.563479,19.576533 C17.6842884,21.0799913 18.8364915,22.2238551 20.1957989,22.2238551 C21.5533067,22.2238551 22.7018897,21.0818094 22.8244434,19.576533 L17.563479,19.576533 Z M9.78850662,19.576533 C9.90843751,21.0803235 11.0591713,22.2238551 12.41814,22.2238551 C13.7766934,22.2238551 14.9260317,21.0816713 15.0485944,19.576533 L9.78850662,19.576533 Z M7.27189694,19.576533 L1.84078184,19.576533 C1.9620445,21.0359768 3.23682136,22.2238551 4.64048111,22.2238551 C6.0006409,22.2238551 7.15107582,21.0809567 7.27189694,19.576533 Z M43.5251551,22.2238551 C44.8951545,22.2238551 46.0568321,21.0546142 46.1536648,19.5837188 L40.8928337,19.576533 C41.0136691,21.0814259 42.1636475,22.2238551 43.5251551,22.2238551 Z M4.64048111,24.0603768 C2.24860325,24.0603768 0.16116609,22.0913636 0,19.5872923 L0,17.7400113 L47.999965,17.7400113 L47.9963726,18.6618456 L47.9908468,19.6464808 C47.8314022,22.1115297 45.8951613,24.0603768 43.5251551,24.0603768 C41.8570067,24.0603768 40.4064734,23.1009088 39.634675,21.6753917 C38.8621481,23.1006431 37.4120154,24.0603768 35.7465911,24.0603768 C34.0793478,24.0603768 32.6290512,23.0999196 31.8577677,21.6735423 C31.086903,23.1000713 29.637791,24.0603768 27.9707424,24.0603768 C26.3043805,24.0603768 24.8536286,23.1003569 24.0821377,21.6750536 C23.3105711,23.1006962 21.8617094,24.0603768 20.1957989,24.0603768 C18.5295714,24.0603768 17.078397,23.1004783 16.3059664,21.6752413 C15.5340367,23.1007955 14.0845661,24.0603768 12.41814,24.0603768 C10.7519335,24.0603768 9.30159236,23.1004942 8.53000101,21.6751925 C7.75815389,23.1006755 6.30767026,24.0603768 4.64048111,24.0603768 Z M9.2854878,19.5487698 L7.44638655,19.5487698 L7.44638655,7.07105225 L9.2854878,7.07105225 L9.2854878,19.5487698 Z M7.44638655,19.5487698 L7.44638655,7.07105225 L9.2854878,7.07105225 L9.2854878,19.5487698 L7.44638655,19.5487698 Z M17.1219792,19.5487698 L15.2828779,19.5487698 L15.2828779,7.07105225 L17.1219792,7.07105225 L17.1219792,19.5487698 Z M15.2828779,19.5487698 L15.2828779,7.07105225 L17.1219792,7.07105225 L17.1219792,19.5487698 L15.2828779,19.5487698 Z M30.9558607,7.07105225 L32.794962,7.07105225 L32.794962,19.5487698 L30.9558607,19.5487698 L30.9558607,7.07105225 Z M32.794962,7.07105225 L32.794962,19.5487698 L30.9558607,19.5487698 L30.9558607,7.07105225 L32.794962,7.07105225 Z M38.791447,7.07105225 L40.6305483,7.07105225 L40.6305483,19.5487698 L38.791447,19.5487698 L38.791447,7.07105225 Z M40.6305483,7.07105225 L40.6305483,19.5487698 L38.791447,19.5487698 L38.791447,7.07105225 L40.6305483,7.07105225 Z M24.9195506,19.5487698 L23.0804494,19.5487698 L23.0804494,7.07105225 L24.9195506,7.07105225 L24.9195506,19.5487698 Z M23.0804494,19.5487698 L23.0804494,7.07105225 L24.9195506,7.07105225 L24.9195506,19.5487698 L23.0804494,19.5487698 Z M0.466992793,43.3538953 L0.466992793,41.5173735 L47.5330072,41.5173735 L47.5330072,43.3538953 L0.466992793,43.3538953 Z M0.466992793,41.5173735 L47.5330072,41.5173735 L47.5330072,43.3538953 L0.466992793,43.3538953 L0.466992793,41.5173735 Z M31.6790482,38.9703892 L31.6790482,26.3672672 L43.4744217,26.3672672 L43.4744217,38.9703892 L31.6790482,38.9703892 Z M41.6353204,37.1338675 L41.6353204,28.2037889 L33.5181494,28.2037889 L33.5181494,37.1338675 L41.6353204,37.1338675 Z M4.52557831,39.0196622 L4.52557831,26.3170983 L16.3209518,26.3170983 L16.3209518,39.0196622 L4.52557831,39.0196622 Z M14.4818506,37.1831405 L14.4818506,28.15362 L6.36467956,28.15362 L6.36467956,37.1831405 L14.4818506,37.1831405 Z M15.2828779,4 L17.1219792,4 L17.1219792,7.50823822 L15.2828779,7.50823822 L15.2828779,4 Z M17.1219792,4 L17.1219792,7.50823822 L15.2828779,7.50823822 L15.2828779,4 L17.1219792,4 Z M30.9558607,4 L32.794962,4 L32.794962,8.64958027 L30.9558607,8.64958027 L30.9558607,4 Z M32.794962,4 L32.794962,8.64958027 L30.9558607,8.64958027 L30.9558607,4 L32.794962,4 Z" id="Stroke-138" fill="#454545" fill-rule="nonzero"></path>
    </g>
</svg>