<?xml version="1.0" encoding="UTF-8"?>
<svg width="48px" height="48px" viewBox="0 0 48 48" version="1.1" xmlns="http://www.w3.org/2000/svg" xmlns:xlink="http://www.w3.org/1999/xlink">
    <!-- Generator: Sketch 49 (51002) - http://www.bohemiancoding.com/sketch -->
    <title>icon-speech-bubble</title>
    <desc>Created with Sketch.</desc>
    <defs></defs>
    <g id="icon-speech-bubble" stroke="none" stroke-width="1" fill="none" fill-rule="evenodd">
        <path d="M31.5,3 L16.5,3 C7.4025,3 0,10.4023125 0,19.5 C0,27.57375 5.829375,34.3125 13.5,35.7260625 L13.5,42 C13.5,43.213125 14.23125,44.308125 15.3525,44.7710625 C15.72375,44.925 16.11375,45 16.5,45 C17.28,45 18.046875,44.69625 18.620625,44.1208125 L26.743125,36 L31.5,36 C40.5975,36 48,28.5975 48,19.5 C48,10.4023125 40.5975,3 31.5,3 Z M31.5,6 C38.956875,6 45,12.045 45,19.5 C45,26.955 38.956875,33 31.5,33 L25.5,33 L16.5,42 L16.5,33 C9.043125,33 3,26.955 3,19.5 C3,12.045 9.043125,6 16.5,6 L31.5,6 Z" id="Fill-50" fill="#454545"></path>
    </g>
</svg>