<?xml version="1.0" encoding="UTF-8"?>
<svg width="48px" height="48px" viewBox="0 0 48 48" version="1.1" xmlns="http://www.w3.org/2000/svg" xmlns:xlink="http://www.w3.org/1999/xlink">
    <!-- Generator: Sketch 49 (51002) - http://www.bohemiancoding.com/sketch -->
    <title>icon-map-pin</title>
    <desc>Created with Sketch.</desc>
    <defs></defs>
    <g id="icon-map-pin" stroke="none" stroke-width="1" fill="none" fill-rule="evenodd">
        <path d="M24,9 C19.029375,9 15,13.029375 15,18 C15,22.970625 19.029375,27 24,27 C28.970625,27 33,22.970625 33,18 C33,13.029375 28.970625,9 24,9 Z M24,10.5 C28.13625,10.5 31.5,13.8635625 31.5,18 C31.5,22.13625 28.13625,25.5 24,25.5 C19.86375,25.5 16.5,22.13625 16.5,18 C16.5,13.8635625 19.86375,10.5 24,10.5 Z M24,0 C14.075625,0 6,8.075625 6,18 C6,23.6135625 8.71125,30.256875 14.05875,37.74375 C17.908125,43.1341875 21.718125,46.96125 21.879375,47.120625 C22.464375,47.7075 23.233125,48 24,48 C24.766875,48 25.535625,47.7075 26.120625,47.120625 C26.281875,46.96125 30.091875,43.1341875 33.94125,37.74375 C39.28875,30.256875 42,23.6135625 42,18 C42,8.075625 33.924375,0 24,0 Z M24,3 C32.28375,3 39,9.7160625 39,18 C39,30 24,45 24,45 C24,45 9,30 9,18 C9,9.7160625 15.71625,3 24,3 Z" id="Fill-67" fill="#454545"></path>
    </g>
</svg>