<?xml version="1.0" encoding="UTF-8"?>
<svg width="48px" height="48px" viewBox="0 0 48 48" version="1.1" xmlns="http://www.w3.org/2000/svg" xmlns:xlink="http://www.w3.org/1999/xlink">
    <!-- Generator: Sketch 49 (51002) - http://www.bohemiancoding.com/sketch -->
    <title>icon-bar-graph</title>
    <desc>Created with Sketch.</desc>
    <defs></defs>
    <g id="icon-bar-graph" stroke="none" stroke-width="1" fill="none" fill-rule="evenodd">
        <path d="M43.5,15 C43.5,14.175 42.825,13.5 42,13.5 L39,13.5 C38.175,13.5 37.5,14.175 37.5,15 L37.5,34.5 C37.5,35.3248125 38.175,36 39,36 L42,36 C42.825,36 43.5,35.3248125 43.5,34.5 L43.5,15 Z M33,10.5 C33,9.675 32.325,9 31.5,9 L28.5,9 C27.675,9 27,9.675 27,10.5 L27,34.5 C27,35.3248125 27.675,36 28.5,36 L31.5,36 C32.325,36 33,35.3248125 33,34.5 L33,10.5 Z M22.5,16.5 C22.5,15.675 21.825,15 21,15 L18,15 C17.1751875,15 16.5,15.675 16.5,16.5 L16.5,34.5 C16.5,35.3248125 17.1751875,36 18,36 L21,36 C21.825,36 22.5,35.3248125 22.5,34.5 L22.5,16.5 Z M12,22.5 C12,21.675 11.325,21 10.5,21 L7.5,21 C6.675,21 6,21.675 6,22.5 L6,34.5 C6,35.3248125 6.675,36 7.5,36 L10.5,36 C11.325,36 12,35.3248125 12,34.5 L12,22.5 Z M46.5,42 L1.5,42 C0.67125,42 0,41.3285625 0,40.5 L0,7.5 C0,6.67125 0.67125,6 1.5,6 C2.32875,6 3,6.67125 3,7.5 L3,39 L46.5,39 C47.32875,39 48,39.67125 48,40.5 C48,41.3285625 47.32875,42 46.5,42 Z" id="Fill-133" fill="#454545"></path>
    </g>
</svg>