<?xml version="1.0" encoding="UTF-8"?>
<svg width="48px" height="48px" viewBox="0 0 48 48" version="1.1" xmlns="http://www.w3.org/2000/svg" xmlns:xlink="http://www.w3.org/1999/xlink">
    <!-- Generator: Sketch 49 (51002) - http://www.bohemiancoding.com/sketch -->
    <title>icon-yelp</title>
    <desc>Created with Sketch.</desc>
    <defs></defs>
    <g id="icon-yelp" stroke="none" stroke-width="1" fill="none" fill-rule="evenodd">
        <circle id="Oval-1-Copy-2" fill="#B01A16" fill-rule="nonzero" cx="24" cy="24" r="24"></circle>
        <path d="M32.6679549,15.9021258 C32.6679549,15.9021258 32.3711012,15.3822948 31.7549961,15.3307216 C31.0757093,15.2716344 30.6571723,16.1077357 30.6571723,16.1077357 L26.605855,22.5926439 C26.605855,22.5926439 26.247491,23.2378217 26.5864659,23.8215216 C26.9545244,24.45577 27.9687744,24.2706527 27.9687744,24.2706527 L35.1390612,22.1394141 C35.1390612,22.1394141 36.1162046,21.7350253 36.2559398,21.196751 C36.3926663,20.6574519 36.0944755,20.007151 36.0944755,20.007151 L32.6679549,15.9021258 Z" id="Fill-152" fill="#FAFAFE" fill-rule="nonzero"></path>
        <path d="M24.1067014,21.4651747 C24.9620465,21.2541002 25.0978318,20.0064375 25.0978318,20.0064375 L25.0395898,9.62348017 C25.0395898,9.62348017 24.9105769,8.34337083 24.3376378,7.99601992 C23.4386111,7.44818231 23.1724585,7.73439672 22.9147714,7.77196663 L16.8846893,10.0224043 C16.8846893,10.0224043 16.2938035,10.2184509 15.9866784,10.7126661 C15.5474928,11.4145403 16.4326362,12.4408819 16.4326362,12.4408819 L22.7007657,21.0187759 C22.7007657,21.0187759 23.3190794,21.6601967 24.1067014,21.4651747" id="Fill-153" fill="#FAFAFE" fill-rule="nonzero"></path>
        <path d="M11.3974858,27.225142 C11.3974858,27.225142 11.3353294,28.1295522 11.5652411,28.5404305 C11.8917292,29.1237887 12.9650961,28.7176922 12.9650961,28.7176922 L20.4322146,27.0383171 C20.7222777,26.8395382 21.2312247,26.8217778 21.2592953,25.7626479 C21.2806825,24.9624087 20.3142511,24.4811723 20.3142511,24.4811723 L13.9178263,21.1934636 C13.9178263,21.1934636 12.9697745,20.7955641 12.5092827,21.0732398 C12.1570633,21.2853391 11.8446105,21.6678691 11.8142007,22.0073644 L11.3974858,27.225142 Z" id="Fill-154" fill="#FAFAFE" fill-rule="nonzero"></path>
        <path d="M24.7373561,28.7300147 C24.0638759,28.3949593 23.2580863,29.0893196 23.2580863,29.0893196 L18.0071173,34.6896272 C18.0071173,34.6896272 17.3522379,35.5451966 17.5185899,36.0715168 C17.6754662,36.5640242 17.9355228,36.8095949 18.3029713,36.9824165 L23.5767522,38.5948487 C23.5767522,38.5948487 24.2158389,38.7232695 24.7001549,38.5873347 C25.3876733,38.3950451 25.260628,37.3519677 25.260628,37.3519677 L25.3799523,29.769335 C25.3799523,29.769335 25.3532798,29.038771 24.7373561,28.7300147" id="Fill-155" fill="#FAFAFE" fill-rule="nonzero"></path>
        <path d="M36.7089371,29.0057213 L29.4956611,26.6586265 C29.49499,26.6586265 28.7886613,26.4690692 28.3178875,26.9506472 C27.8058411,27.4728689 28.2386981,28.4250955 28.2386981,28.4250955 L32.0928028,34.9458659 C32.0928028,34.9458659 32.7256464,35.8051922 33.2742674,35.8051922 C33.8245662,35.8051922 34.3688251,35.3471808 34.3688251,35.3471808 L37.4156013,30.9337409 C37.4156013,30.9337409 37.7226277,30.3773646 37.7296742,29.8896389 C37.7407473,29.1963033 36.7089371,29.0057213 36.7089371,29.0057213" id="Fill-156" fill="#FAFAFE" fill-rule="nonzero"></path>
    </g>
</svg>