<?xml version="1.0" encoding="UTF-8"?>
<svg width="48px" height="48px" viewBox="0 0 48 48" version="1.1" xmlns="http://www.w3.org/2000/svg" xmlns:xlink="http://www.w3.org/1999/xlink">
    <!-- Generator: Sketch 49 (51002) - http://www.bohemiancoding.com/sketch -->
    <title>icon-share</title>
    <desc>Created with Sketch.</desc>
    <defs></defs>
    <g id="icon-share" stroke="none" stroke-width="1" fill="none" fill-rule="evenodd">
        <path d="M46.8,21.6339292 L40.8,17.1339453 C39.890625,16.4514477 38.67375,16.3426981 37.6575,16.8508213 C36.64125,17.3589445 36,18.3976908 36,19.5339367 L36,21.0339313 L17.746875,21.0339313 C18.729375,19.9089353 19.605,18.6768773 20.42625,17.5483188 C23.589375,13.2002094 25.74375,10.5339689 30,10.5339689 L30,12.0339636 C30,13.170022 30.64125,14.2087683 31.6575,14.7168914 C32.083125,14.9289532 32.5425,15.0339528 33,15.0339528 C33.6375,15.0339528 34.27125,14.8314535 34.8,14.4337675 L40.8,9.93378358 C41.555625,9.36772311 42,8.4787888 42,7.53397968 C42,6.58879557 41.555625,5.70004875 40.8,5.13398828 L34.8,0.634004403 C33.890625,-0.0486806515 32.67375,-0.157242763 31.6575,0.350880417 C30.64125,0.859003597 30,1.89774988 30,3.0339958 L30,4.53399043 C22.471875,4.53399043 18.646875,9.79315909 15.57375,14.0193939 C12.410625,18.3676909 10.25625,21.0339313 6,21.0339313 L3,21.0339313 C1.3425,21.0339313 0,22.3764265 0,24.0339206 C0,25.6912271 1.3425,27.0339098 3,27.0339098 L6,27.0339098 C10.25625,27.0339098 12.410625,29.6999628 15.57375,34.0482597 C18.646875,38.2744946 22.471875,43.5338507 30,43.5338507 L30,45.0338453 C30,46.1699038 30.64125,47.2088375 31.6575,47.7167732 C32.083125,47.928835 32.5425,48.0338346 33,48.0338346 C33.6375,48.0338346 34.27125,47.8311478 34.8,47.4338367 L40.8,42.9338529 C41.555625,42.3676049 42,41.4788581 42,40.5338615 C42,39.5888648 41.555625,38.6999305 40.8,38.1338701 L34.8,33.6338862 C33.890625,32.9512011 32.67375,32.842639 31.6575,33.3507622 C30.64125,33.8588854 30,34.8976316 30,36.0338776 L30,37.5338722 C25.74375,37.5338722 23.589375,34.8676318 20.42625,30.5195223 C19.605,29.3907764 18.729375,28.1589058 17.746875,27.0339098 L36,27.0339098 L36,28.5339044 C36,29.6701504 36.64125,30.7087092 37.6575,31.2170198 C38.083125,31.4288941 38.5425,31.5338937 39,31.5338937 C39.6375,31.5338937 40.27125,31.3313944 40.8,30.9337083 L46.8,26.4337245 C47.555625,25.867664 48,24.9789172 48,24.0339206 C48,23.088924 47.555625,22.2001771 46.8,21.6339292" id="Fill-222" fill="#454545"></path>
    </g>
</svg>