<?xml version="1.0" encoding="UTF-8"?>
<svg width="48px" height="48px" viewBox="0 0 48 48" version="1.1" xmlns="http://www.w3.org/2000/svg" xmlns:xlink="http://www.w3.org/1999/xlink">
    <!-- Generator: Sketch 49 (51002) - http://www.bohemiancoding.com/sketch -->
    <title>icon-google</title>
    <desc>Created with Sketch.</desc>
    <defs></defs>
    <g id="icon-google" stroke="none" stroke-width="1" fill="none" fill-rule="evenodd">
        <g id="Group" fill-rule="nonzero">
            <circle id="Oval-1-Copy-4" fill="#D04539" cx="24" cy="24" r="24"></circle>
            <path d="M11.277058,24.1639567 C11.386788,17.8133589 17.4223747,12.2514989 23.9875283,12.4633673 C27.132834,12.3224014 30.0899071,13.646474 32.4991975,15.5063009 C31.4712914,16.6361258 30.4065196,17.7252552 29.2684497,18.7434821 C26.3725305,16.8068791 22.2530994,16.2539237 19.3571802,18.4904987 C15.2134611,21.2624085 15.0252285,27.8072541 19.0102076,30.7910323 C22.8858905,34.1930934 30.2117813,32.5036003 31.2826251,27.294994 C28.854685,27.2597525 26.4211067,27.294994 23.9936002,27.2186376 C23.9875283,25.8177888 23.9814563,24.4169402 23.9875283,23.0160916 C28.0458053,23.0043443 32.1040825,22.9984708 36.1684317,23.0278387 C36.4117462,26.3237557 35.9615494,29.8315413 33.8684377,32.556882 C30.6984102,36.871026 24.3340671,38.1304891 19.3693243,36.2824094 C14.3863653,34.4460769 10.8572213,29.3549422 11.277058,24.1639567" id="Fill-186" fill="#FFFFFF"></path>
        </g>
    </g>
</svg>