<?xml version="1.0" encoding="UTF-8"?>
<svg width="48px" height="48px" viewBox="0 0 48 48" version="1.1" xmlns="http://www.w3.org/2000/svg" xmlns:xlink="http://www.w3.org/1999/xlink">
    <!-- Generator: Sketch 49 (51002) - http://www.bohemiancoding.com/sketch -->
    <title>icon-website</title>
    <desc>Created with Sketch.</desc>
    <defs></defs>
    <g id="icon-website" stroke="none" stroke-width="1" fill="none" fill-rule="evenodd">
        <path d="M29.6476875,44.2348125 C31.191,41.98125 32.4586875,38.8275 33.3110625,35.1 C35.961375,35.46 38.3955,35.971875 40.490625,36.628125 C40.5703125,36.6523125 40.6464375,36.67875 40.7244375,36.703125 C40.152375,37.453125 39.5274375,38.17125 38.84925,38.85 C36.2518125,41.4466875 33.09375,43.280625 29.6476875,44.2348125 Z M7.2755625,36.703125 C7.3535625,36.67875 7.4296875,36.6523125 7.5091875,36.628125 C9.6045,35.971875 12.0384375,35.46 14.6889375,35.1 C15.5413125,38.8275 16.809,41.98125 18.3523125,44.2348125 C14.906625,43.280625 11.7481875,41.4466875 9.1505625,38.85 C8.472375,38.17125 7.847625,37.453125 7.2755625,36.703125 Z M18.3523125,3.765 C16.809,6.01875 15.5413125,9.1725 14.6889375,12.8998125 C12.0384375,12.54 9.6045,12.028125 7.5091875,11.3716875 C7.4296875,11.3475 7.3535625,11.32125 7.2755625,11.296875 C7.847625,10.546875 8.472375,9.82875 9.1505625,9.15 C11.7481875,6.553125 14.906625,4.7191875 18.3523125,3.765 Z M40.7244375,11.296875 C40.6464375,11.32125 40.5703125,11.3475 40.490625,11.3716875 C38.3955,12.028125 35.961375,12.54 33.3110625,12.8998125 C32.4586875,9.1725 31.191,6.01875 29.6476875,3.765 C33.09375,4.7191875 36.2518125,6.553125 38.84925,9.15 C39.5274375,9.82875 40.152375,10.546875 40.7244375,11.296875 Z M34.4945625,24.75 L44.985,24.75 C44.851875,28.59375 43.6875,32.2575 41.627625,35.424375 C39.397875,34.665 36.676125,34.05 33.6196875,33.63 C34.144125,30.898125 34.452,27.9 34.4945625,24.75 Z M13.5054375,24.75 C13.548,27.9 13.855875,30.898125 14.380125,33.63 C11.323875,34.05 8.602125,34.665 6.372375,35.424375 C4.31175,32.2575 3.1486875,28.59375 3.014625,24.75 L13.5054375,24.75 Z M13.5054375,23.25 L3.014625,23.25 C3.1486875,19.40625 4.31175,15.7425 6.372375,12.575625 C8.602125,13.335 11.323875,13.9498125 14.380125,14.37 C13.855875,17.101875 13.548,20.1 13.5054375,23.25 Z M34.4945625,23.25 C34.452,20.1 34.144125,17.101875 33.6196875,14.37 C36.676125,13.9498125 39.397875,13.335 41.627625,12.575625 C43.6875,15.7425 44.851875,19.40625 44.985,23.25 L34.4945625,23.25 Z M24,15 C26.8546875,15 29.591625,14.8425 32.13,14.555625 C32.655375,17.26125 32.950125,20.20125 32.9923125,23.25 L15.0080625,23.25 C15.0496875,20.20125 15.344625,17.26125 15.8698125,14.555625 C18.408375,14.8425 21.1453125,15 24,15 Z M24,3 C25.13025,3 26.2464375,3.09 27.341625,3.264375 C28.317,4.303125 29.2400625,5.7785625 30.0504375,7.63125 C30.7636875,9.260625 31.35675,11.0979375 31.8196875,13.0835625 C29.345625,13.3575 26.7099375,13.5 24,13.5 C21.289875,13.5 18.6541875,13.3575 16.1803125,13.0835625 C16.64325,11.0979375 17.2363125,9.260625 17.949375,7.63125 C18.75975,5.7785625 19.683,4.303125 20.658375,3.264375 C21.753375,3.09 22.8695625,3 24,3 Z M24,33 C21.1453125,33 18.408375,33.1575 15.8698125,33.444375 C15.344625,30.7385625 15.0496875,27.79875 15.0080625,24.75 L32.9923125,24.75 C32.950125,27.79875 32.655375,30.7385625 32.13,33.444375 C29.591625,33.1575 26.8546875,33 24,33 Z M24,45 C22.8695625,45 21.753375,44.91 20.658375,44.7354375 C19.683,43.6966875 18.75975,42.22125 17.949375,40.36875 C17.2363125,38.7391875 16.64325,36.901875 16.1803125,34.9141875 C18.6541875,34.6425 21.289875,34.5 24,34.5 C26.7099375,34.5 29.345625,34.6425 31.8196875,34.9141875 C31.35675,36.901875 30.7636875,38.7391875 30.0504375,40.36875 C29.2400625,42.22125 28.317,43.6966875 27.341625,44.7354375 C26.2464375,44.91 25.13025,45 24,45 Z M24,0 C10.74525,0 0,10.745625 0,24 C0,37.2541875 10.74525,48 24,48 C37.25475,48 48,37.2541875 48,24 C48,10.745625 37.25475,0 24,0 Z" id="Fill-18-Copy" fill="#454545"></path>
    </g>
</svg>