<?xml version="1.0" encoding="UTF-8"?>
<svg width="48px" height="48px" viewBox="0 0 48 48" version="1.1" xmlns="http://www.w3.org/2000/svg" xmlns:xlink="http://www.w3.org/1999/xlink">
    <!-- Generator: Sketch 49 (51002) - http://www.bohemiancoding.com/sketch -->
    <title>icon-home copy</title>
    <desc>Created with Sketch.</desc>
    <defs></defs>
    <g id="icon-home-copy" stroke="none" stroke-width="1" fill="none" fill-rule="evenodd">
        <path d="M38.9999781,24 L38.9999781,45 L31.4999628,45 L31.4999628,25.5 C31.4999628,24.67125 30.8283364,24 29.9999597,24 L17.9999353,24 C17.1717461,24 16.4999322,24.67125 16.4999322,25.5 L16.4999322,45 L8.99991689,45 L8.99991689,24 L2.99990465,24 L8.99991689,18 L8.99991689,6 L14.9999291,6 L14.9999291,12 L23.9999475,3 L44.9999904,24 L38.9999781,24 Z M17.9999353,45 L29.9999597,45 L29.9999597,25.5 L17.9999353,25.5 L17.9999353,45 Z M47.1211822,21.8791875 L26.1213268,0.8791875 C25.5355756,0.2925 24.7677616,0 23.9999475,0 C23.2323209,0 22.4645069,0.2925 21.8787557,0.8791875 L17.8101849,4.948125 C17.383809,3.81 16.2865568,3 14.9999291,3 L8.99991689,3 C7.34335101,3 5.99991077,4.3425 5.99991077,6 L5.99991077,16.756875 L0.878900319,21.8791875 C0.0205235671,22.73625 -0.235789456,24.02625 0.228461491,25.1475 C0.692712439,26.26875 1.78658967,27 2.99990465,27 L5.99991077,27 L5.99991077,45 C5.99991077,46.6575 7.34335101,48 8.99991689,48 L38.9999781,48 C40.6567315,48 41.9999842,46.6575 41.9999842,45 L41.9999842,27 L44.9999904,27 C46.2133053,27 47.3071826,26.26875 47.771621,25.1475 C48.235872,24.02625 47.9791839,22.73625 47.1211822,21.8791875 Z" id="Fill-57" fill="#F76F46"></path>
    </g>
</svg>