<?xml version="1.0" encoding="UTF-8"?>
<svg width="48px" height="48px" viewBox="0 0 48 48" version="1.1" xmlns="http://www.w3.org/2000/svg" xmlns:xlink="http://www.w3.org/1999/xlink">
    <!-- Generator: Sketch 49 (51002) - http://www.bohemiancoding.com/sketch -->
    <title>icon-chart-up</title>
    <desc>Created with Sketch.</desc>
    <defs></defs>
    <g id="icon-chart-up" stroke="none" stroke-width="1" fill="none" fill-rule="evenodd">
        <path d="M8.99989817,34.5001131 C9.58676653,34.5001131 10.1455102,34.1532434 10.3855075,33.5776271 L16.7679353,18.2591081 L22.7284928,27.7952143 C23.0153646,28.2543949 23.5291088,28.5245783 24.0709777,28.4983287 C24.613034,28.4720791 25.098466,28.1570838 25.3422133,27.6714662 L32.0115128,14.3310424 L38.0620694,19.1722194 C38.3845657,19.4290905 38.7991235,19.5432763 39.2058064,19.4851521 C39.6145518,19.4290905 39.9801727,19.2078438 40.2201699,18.8720364 L47.7200851,8.37219479 C48.2019546,7.69926744 48.0463314,6.76178158 47.371339,6.27991385 C46.6963467,5.79804612 45.7607323,5.95366878 45.2788627,6.62865859 L38.6995621,15.8402071 L32.437133,10.8285952 C32.082762,10.5454745 31.6196423,10.4386011 31.1790222,10.5359122 C30.7367147,10.6317232 30.361719,10.9242188 30.1592213,11.3290252 L23.8553551,23.9365225 L17.7729239,14.2052318 C17.4748023,13.7291765 16.9385584,13.4610555 16.3781272,13.5060548 C15.819196,13.5510542 15.331889,13.9054238 15.116079,14.4227285 L7.61616383,32.422457 C7.29741744,33.1876329 7.65947584,34.0651197 8.42446718,34.3838649 C8.61177757,34.4624262 8.80677536,34.5001131 8.99989817,34.5001131 Z M46.4994739,42 L1.49998303,42 C0.671242405,42 0,41.3285726 0,40.5000226 L0,7.50052044 C0,6.67178294 0.671242405,6.00054307 1.49998303,6.00054307 C2.32872365,6.00054307 2.99996606,6.67178294 2.99996606,7.50052044 L2.99996606,39.0000453 L46.4994739,39.0000453 C47.3282145,39.0000453 47.9994569,39.6712851 47.9994569,40.5000226 C47.9994569,41.3285726 47.3282145,42 46.4994739,42 Z" id="Fill-131-Copy-2" fill="#454545"></path>
    </g>
</svg>