<?xml version="1.0" encoding="UTF-8"?>
<svg width="48px" height="48px" viewBox="0 0 48 48" version="1.1" xmlns="http://www.w3.org/2000/svg" xmlns:xlink="http://www.w3.org/1999/xlink">
    <!-- Generator: Sketch 49 (51002) - http://www.bohemiancoding.com/sketch -->
    <title>icon-identity</title>
    <desc>Created with Sketch.</desc>
    <defs></defs>
    <g id="icon-identity" stroke="none" stroke-width="1" fill="none" fill-rule="evenodd">
        <path d="M41.25,24 C41.664375,24 42,23.664375 42,23.25 C42,22.835625 41.664375,22.5 41.25,22.5 L24.75,22.5 C24.3358125,22.5 24,22.835625 24,23.25 C24,23.664375 24.3358125,24 24.75,24 L41.25,24 Z M15,34.5 C15,33.673125 14.3270625,33 13.5,33 C12.6729375,33 12,33.673125 12,34.5 C12,35.326875 12.6729375,36 13.5,36 C14.3270625,36 15,35.326875 15,34.5 Z M36,34.5 C36,33.673125 35.3270625,33 34.5,33 C33.6729375,33 33,33.673125 33,34.5 C33,35.326875 33.6729375,36 34.5,36 C35.3270625,36 36,35.326875 36,34.5 Z M45,9 L3,9 L3,39 L12.75,39 L12.75,37.5 C12.75,37.4660625 12.755625,37.43625 12.75975,37.4041875 C11.463,37.0725 10.5,35.89875 10.5,34.5 C10.5,32.84625 11.845875,31.5 13.5,31.5 C15.154125,31.5 16.5,32.84625 16.5,34.5 C16.5,35.89875 15.537,37.0725 14.24025,37.4041875 C14.244375,37.43625 14.25,37.4660625 14.25,37.5 L14.25,39 L33.75,39 L33.75,37.5 C33.75,37.4660625 33.755625,37.43625 33.75975,37.4041875 C32.463,37.0725 31.5,35.89875 31.5,34.5 C31.5,32.84625 32.845875,31.5 34.5,31.5 C36.154125,31.5 37.5,32.84625 37.5,34.5 C37.5,35.89875 36.537,37.0725 35.24025,37.4041875 C35.244375,37.43625 35.25,37.4660625 35.25,37.5 L35.25,39 L45,39 L45,9 Z M48,9 L48,39 C48,40.6575 46.6569375,42 45,42 L3,42 C1.3430625,42 0,40.6575 0,39 L0,9 C0,7.3425 1.3430625,6 3,6 L45,6 C46.6569375,6 48,7.3425 48,9 Z M19.5,13.5 L7.5,13.5 L7.5,25.5 L9,25.5 C9,23.805 9.9384375,22.3275 11.3240625,21.560625 C10.814625,21.0241875 10.5,20.29875 10.5,19.5 C10.5,17.8423125 11.84325,16.5 13.5,16.5 C15.1569375,16.5 16.5,17.8423125 16.5,19.5 C16.5,20.29875 16.185375,21.0241875 15.6759375,21.560625 C17.0615625,22.3275 18,23.805 18,25.5 L19.5,25.5 L19.5,13.5 Z M21,13.5 L21,25.5 C21,26.3285625 20.3285625,27 19.5,27 L7.5,27 C6.6714375,27 6,26.3285625 6,25.5 L6,13.5 C6,12.67125 6.6714375,12 7.5,12 L19.5,12 C20.3285625,12 21,12.67125 21,13.5 Z M41.25,19.5 C41.664375,19.5 42,19.164375 42,18.75 C42,18.335625 41.664375,18 41.25,18 L24.75,18 C24.3358125,18 24,18.335625 24,18.75 C24,19.164375 24.3358125,19.5 24.75,19.5 L41.25,19.5 Z M41.25,15 L24.75,15 C24.3358125,15 24,14.6641875 24,14.25 C24,13.835625 24.3358125,13.5 24.75,13.5 L41.25,13.5 C41.664375,13.5 42,13.835625 42,14.25 C42,14.6641875 41.664375,15 41.25,15 Z" id="Fill-138" fill="#454545"></path>
    </g>
</svg>