<?xml version="1.0" encoding="UTF-8"?>
<svg width="48px" height="48px" viewBox="0 0 48 48" version="1.1" xmlns="http://www.w3.org/2000/svg" xmlns:xlink="http://www.w3.org/1999/xlink">
    <!-- Generator: Sketch 49 (51002) - http://www.bohemiancoding.com/sketch -->
    <title>icon-camera</title>
    <desc>Created with Sketch.</desc>
    <defs></defs>
    <g id="icon-camera" stroke="none" stroke-width="1" fill="none" fill-rule="evenodd">
        <path d="M45,39 C45,40.6498125 43.65,42 42,42 L6,42 C4.35,42 3,40.6498125 3,39 L3,15 C3,13.3498125 4.35,12 6,12 L42,12 C43.65,12 45,13.3498125 45,15 L45,39 Z M15,9 C15,7.3498125 16.35,6 18,6 L30,6 C31.65,6 33,7.3498125 33,9 L33,10.5 L15,10.5 L15,9 Z M42,9 L36.005625,9 C36.00375,8.9985 36.001875,8.996625 36,8.99475 C35.99625,5.688375 33.305625,3 30,3 L18,3 C14.6925,3 12.00375,5.68875 12,8.99475 C11.998125,8.996625 11.99625,8.9985 11.994375,9 L6,9 C2.6925,9 0,11.6915625 0,15 L0,39 C0,42.3084375 2.6925,45 6,45 L42,45 C45.3075,45 48,42.3084375 48,39 L48,15 C48,11.6915625 45.3075,9 42,9 Z M38.25,21 C37.006875,21 36,19.99275 36,18.75 C36,17.50725 37.006875,16.5 38.25,16.5 C39.493125,16.5 40.5,17.50725 40.5,18.75 C40.5,19.99275 39.493125,21 38.25,21 Z M38.25,15 C36.181875,15 34.5,16.68225 34.5,18.75 C34.5,20.8175625 36.181875,22.5 38.25,22.5 C40.318125,22.5 42,20.8175625 42,18.75 C42,16.68225 40.318125,15 38.25,15 Z M21,37.5 C15.21,37.5 10.5,32.789625 10.5,27 C10.5,21.2101875 15.21,16.5 21,16.5 C26.79,16.5 31.5,21.2101875 31.5,27 C31.5,32.789625 26.79,37.5 21,37.5 Z M21,15 C14.371875,15 9,20.37225 9,27 C9,33.6275625 14.371875,39 21,39 C27.628125,39 33,33.6275625 33,27 C33,20.37225 27.628125,15 21,15 Z" id="Fill-17" fill="#454545"></path>
    </g>
</svg>